<svg width="50" height="50" viewBox="0 0 50 50" fill="none" xmlns="http://www.w3.org/2000/svg">
<path d="M35.4785 9.83399L49.541 23.8965C49.8438 24.1992 50 24.5996 50 24.9121C50 25.2246 49.8475 25.7117 49.5422 26.0166L35.4797 40.0791C34.8693 40.6895 33.8801 40.6895 33.2707 40.0791C32.6613 39.4688 32.6604 38.4795 33.2707 37.8701L44.6672 26.4736H1.5625C0.698828 26.4736 0 25.7748 0 24.999C0 24.1354 0.698828 23.4365 1.5625 23.4365H44.668L33.2715 12.04C32.6611 11.4297 32.6611 10.4404 33.2715 9.83106C33.8818 9.22168 34.873 9.22266 35.4785 9.83399Z" fill="black"/>
</svg>
