<svg width="50" height="50" viewBox="0 0 50 50" fill="none" xmlns="http://www.w3.org/2000/svg">
<g clip-path="url(#clip0_148_127)">
<path d="M14.5215 40.166L0.458986 26.1035C0.156251 25.8008 1.331e-06 25.4004 1.35832e-06 25.0879C1.38564e-06 24.7754 0.15254 24.2883 0.457811 23.9834L14.5203 9.9209C15.1307 9.31054 16.1199 9.31054 16.7293 9.9209C17.3387 10.5312 17.3397 11.5205 16.7293 12.1299L5.33281 23.5264L48.4375 23.5264C49.3012 23.5264 50 24.2252 50 25.001C50 25.8646 49.3012 26.5635 48.4375 26.5635L5.33203 26.5635L16.7285 37.96C17.3389 38.5703 17.3389 39.5596 16.7285 40.1689C16.1182 40.7783 15.127 40.7773 14.5215 40.166Z" fill="black"/>
</g>
<defs>
<clipPath id="clip0_148_127">
<rect width="50" height="50" fill="white" transform="translate(50 50) rotate(-180)"/>
</clipPath>
</defs>
</svg>
