<svg width="33" height="47" viewBox="0 0 33 47" fill="none" xmlns="http://www.w3.org/2000/svg">
<path d="M20.5575 20.6246H29.8565C30.9657 20.6246 31.9665 21.3703 32.2834 22.4844C32.7421 23.6074 32.4502 24.8742 31.6162 25.6648L10.2662 45.7894C9.32375 46.6699 7.94517 46.7418 6.93771 45.9511C5.92942 45.1605 5.56247 43.7231 6.05369 42.4922L12.4679 26.3745H3.09387C2.05722 26.3745 1.06169 25.6288 0.670636 24.5148C0.27958 23.3918 0.574761 22.125 1.41172 21.3344L22.7593 1.21134C23.7017 0.327473 25.0778 0.260182 26.0869 1.04927C27.096 1.83862 27.463 3.2734 26.9709 4.50783L20.5575 20.6246Z" fill="white"/>
</svg>
