<svg width="21" height="21" viewBox="0 0 21 21" fill="none" xmlns="http://www.w3.org/2000/svg">
<path d="M10.5 0C4.70039 0 0 4.70039 0 10.5C0 16.2996 4.70039 21 10.5 21C16.2996 21 21 16.2996 21 10.5C21 4.70039 16.2996 0 10.5 0ZM10.5 5.25C11.2247 5.25 11.8125 5.83775 11.8125 6.5625C11.8125 7.28725 11.2247 7.875 10.5 7.875C9.77525 7.875 9.1875 7.28848 9.1875 6.5625C9.1875 5.83652 9.77402 5.25 10.5 5.25ZM12.1406 15.75H8.85938C8.31797 15.75 7.875 15.3111 7.875 14.7656C7.875 14.2201 8.31592 13.7812 8.85938 13.7812H9.51562V11.1562H9.1875C8.64404 11.1562 8.20312 10.7153 8.20312 10.1719C8.20312 9.62842 8.64609 9.1875 9.1875 9.1875H10.5C11.0435 9.1875 11.4844 9.62842 11.4844 10.1719V13.7812H12.1406C12.6841 13.7812 13.125 14.2222 13.125 14.7656C13.125 15.3091 12.6861 15.75 12.1406 15.75Z" fill="#FFB800"/>
</svg>
