<svg width="49" height="41" viewBox="0 0 49 41" fill="none" xmlns="http://www.w3.org/2000/svg">
<path d="M0.5 13.9287V13.3856C0.5 6.84017 5.23625 1.25737 11.6938 0.18238C15.8844 -0.528347 20.3188 0.863141 23.375 3.92048L24.5 5.04229L25.5406 3.92048C28.6813 0.863141 33.0312 -0.528347 37.3063 0.18238C43.7656 1.25737 48.5 6.84017 48.5 13.3856V13.9287C48.5 17.8148 46.8875 21.5323 44.0375 24.1823L27.0969 39.9793C26.3938 40.6348 25.4656 41 24.5 41C23.5344 41 22.6063 40.6348 21.9031 39.9793L4.96156 24.1823C2.11531 21.5323 0.5 17.8148 0.5 13.9287Z" fill="white"/>
</svg>
