<svg width="45" height="46" viewBox="0 0 45 46" fill="none" xmlns="http://www.w3.org/2000/svg">
<path d="M22.505 11.2062C16.1202 11.2062 10.9702 16.4718 10.9702 23C10.9702 29.5282 16.1202 34.7938 22.505 34.7938C28.8898 34.7938 34.0399 29.5282 34.0399 23C34.0399 16.4718 28.8898 11.2062 22.505 11.2062ZM22.505 30.6675C18.379 30.6675 15.0059 27.2289 15.0059 23C15.0059 18.7711 18.3689 15.3325 22.505 15.3325C26.6411 15.3325 30.0042 18.7711 30.0042 23C30.0042 27.2289 26.6311 30.6675 22.505 30.6675ZM37.2022 10.7238C37.2022 12.2532 35.9975 13.4746 34.5117 13.4746C33.0159 13.4746 31.8212 12.2429 31.8212 10.7238C31.8212 9.20462 33.0259 7.97289 34.5117 7.97289C35.9975 7.97289 37.2022 9.20462 37.2022 10.7238ZM44.8419 13.5157C44.6712 9.83075 43.848 6.56666 41.2078 3.87738C38.5775 1.18811 35.3851 0.346424 31.7811 0.161665C28.0666 -0.0538882 16.9334 -0.0538882 13.2189 0.161665C9.62493 0.33616 6.43252 1.17784 3.79225 3.86712C1.15198 6.5564 0.338818 9.82048 0.158115 13.5054C-0.052705 17.3032 -0.052705 28.6865 0.158115 32.4843C0.328779 36.1693 1.15198 39.4333 3.79225 42.1226C6.43252 44.8119 9.61489 45.6536 13.2189 45.8383C16.9334 46.0539 28.0666 46.0539 31.7811 45.8383C35.3851 45.6638 38.5775 44.8222 41.2078 42.1226C43.838 39.4333 44.6612 36.1693 44.8419 32.4843C45.0527 28.6865 45.0527 17.3135 44.8419 13.5157ZM40.0432 36.5593C39.2602 38.5711 37.7443 40.1211 35.7666 40.9319C32.8051 42.1329 25.7777 41.8557 22.505 41.8557C19.2323 41.8557 12.1949 42.1226 9.24345 40.9319C7.27579 40.1313 5.7599 38.5814 4.96682 36.5593C3.79225 33.5313 4.0633 26.3462 4.0633 23C4.0633 19.6538 3.80229 12.4584 4.96682 9.4407C5.74986 7.42887 7.26576 5.87895 9.24345 5.06806C12.205 3.86712 19.2323 4.14426 22.505 4.14426C25.7777 4.14426 32.8151 3.87738 35.7666 5.06806C37.7342 5.86868 39.2501 7.41861 40.0432 9.4407C41.2178 12.4687 40.9467 19.6538 40.9467 23C40.9467 26.3462 41.2178 33.5416 40.0432 36.5593Z" fill="black"/>
</svg>
