<svg width="25" height="25" viewBox="0 0 25 25" fill="none" xmlns="http://www.w3.org/2000/svg">
<g clip-path="url(#clip0_142_20)">
<path d="M16.2256 20.8203C11.6782 21.687 7.50977 18.2017 7.50977 13.6133C7.50977 10.9644 8.92578 8.53518 11.2207 7.2217C11.5808 7.02029 11.4868 6.48342 11.084 6.41018C5.30762 5.34182 0 9.76565 0 15.625C0 20.8008 4.1875 25 9.36523 25C12.2583 25 14.8926 23.6919 16.6357 21.5313C16.8994 21.2158 16.6162 20.7422 16.2256 20.8203ZM14.0625 3.08108L14.6689 4.53518C14.6987 4.595 14.7769 4.64353 14.8437 4.64353C14.9104 4.64353 14.9885 4.59499 15.0183 4.53518L15.6247 3.08108L17.0793 2.47463C17.1387 2.48879 17.1875 2.41018 17.1875 2.29983C17.1875 2.23318 17.1391 2.15496 17.0795 2.12522L15.625 1.51877L15.0185 0.0641846C14.9888 0.00427246 14.9106 -0.0440674 14.8439 -0.0440674C14.7771 -0.0440674 14.6989 0.00428223 14.6692 0.0641846L14.0627 1.51877L12.6074 2.16897C12.548 2.19873 12.4996 2.27693 12.4996 2.34358C12.4996 2.40994 12.548 2.48865 12.6074 2.51838L14.0625 3.08108ZM24.7852 10.5908L21.875 9.37502L20.6602 6.4634C20.5957 6.33791 20.459 6.20608 20.3125 6.20608C20.166 6.20608 20.0317 6.29153 19.9646 6.4197L18.75 9.37502L15.8384 10.5899C15.7129 10.6592 15.625 10.791 15.625 10.9375C15.625 11.084 15.7104 11.2183 15.8386 11.2854L18.75 12.5L19.9648 15.4116C20.0342 15.542 20.166 15.625 20.3125 15.625C20.459 15.625 20.5933 15.5396 20.6604 15.4114L21.875 12.5L24.7866 11.2852C24.917 11.2207 25 11.084 25 10.9375C25 10.791 24.917 10.6592 24.7852 10.5908Z" fill="white"/>
</g>
<defs>
<clipPath id="clip0_142_20">
<rect width="25" height="25" fill="white"/>
</clipPath>
</defs>
</svg>
